<svg width="60" height="60" viewBox="0 0 60 60" version="1.1" xmlns="http://www.w3.org/2000/svg" xmlns:xlink="http://www.w3.org/1999/xlink">
<g id="Canvas" fill="none">
<g id="code-icon">
<g id="Vector" opacity="0.3">
<path d="M 42.5 0L 2.5 0C 1 0 0 1 0 2.5L 0 10L 30 10L 33.25 7.75L 45 7.5L 45 2.5C 45 1 44 0 42.5 0Z" transform="translate(1.25 1.25002)" fill="#7BED9F"/>
</g>
<g id="Vector_2" opacity="0.3">
<path d="M 15 0L 0 0L 0 10L 15 10L 15 0Z" transform="translate(6.25 16.25)" fill="#7BED9F"/>
</g>
<g id="Vector_3" opacity="0.3">
<path d="M 17.5 0L 0 0L 0 10L 17.5 10L 17.5 0Z" transform="translate(36.25 23.75)" fill="#7BED9F"/>
</g>
<g id="Vector_4" opacity="0.3">
<path d="M 5 0L 0 0L 0 10L 5 10L 5 0Z" transform="translate(26.25 16.25)" fill="#7BED9F"/>
</g>
<g id="Vector_5" opacity="0.3">
<path d="M 0 5.25L 0 10L 27.5 10L 27.5 5.25C 27.5 2.5 25.25 0 22.25 0L 5 0C 2.25 0 0 2.25 0 5.25Z" transform="translate(31.25 8.75002)" fill="#7BED9F"/>
</g>
<g id="Vector_6" opacity="0.3">
<path d="M 0 0L 0 4.5C 0 7.5 2.5 10 5.5 10L 22.25 10C 25.25 10 27.75 7.5 27.75 4.5L 27.75 0L 0 0Z" transform="translate(31.25 48.75)" fill="#7BED9F"/>
</g>
<g id="Group">
<g id="Vector_7">
<path d="M 16.25 0L 1.25 0C 0.5 0 0 0.5 0 1.25L 0 11.25C 0 12 0.5 12.5 1.25 12.5L 16.25 12.5C 17 12.5 17.5 12 17.5 11.25L 17.5 1.25C 17.5 0.5 17 0 16.25 0ZM 15 10L 2.5 10L 2.5 2.5L 15 2.5L 15 10Z" transform="translate(5 15)" fill="#6066D5"/>
</g>
<g id="Vector_8">
<path d="M 16.25 0L 1.25 0C 0.5 0 0 0.5 0 1.25C 0 2 0.5 2.5 1.25 2.5L 16.25 2.5C 17 2.5 17.5 2 17.5 1.25C 17.5 0.5 17 0 16.25 0Z" transform="translate(5 30)" fill="#6066D5"/>
</g>
<g id="Vector_9">
<path d="M 11.25 0L 1.25 0C 0.5 0 0 0.5 0 1.25C 0 2 0.5 2.5 1.25 2.5L 11.25 2.5C 12 2.5 12.5 2 12.5 1.25C 12.5 0.5 12 0 11.25 0Z" transform="translate(5 35)" fill="#6066D5"/>
</g>
<g id="Vector_10">
<path d="M 18.75 0L 1.25 0C 0.5 0 0 0.5 0 1.25L 0 11.25C 0 12 0.5 12.5 1.25 12.5L 18.75 12.5C 19.5 12.5 20 12 20 11.25L 20 1.25C 20 0.5 19.5 0 18.75 0ZM 17.5 10L 2.5 10L 2.5 2.5L 17.5 2.5L 17.5 10Z" transform="translate(35 22.5)" fill="#6066D5"/>
</g>
<g id="Vector_11">
<path d="M 18.75 0L 1.25 0C 0.5 0 0 0.5 0 1.25C 0 2 0.5 2.5 1.25 2.5L 18.75 2.5C 19.5 2.5 20 2 20 1.25C 20 0.5 19.5 0 18.75 0Z" transform="translate(35 37.5)" fill="#6066D5"/>
</g>
<g id="Vector_12">
<path d="M 13.75 0L 1.25 0C 0.5 0 0 0.5 0 1.25C 0 2 0.5 2.5 1.25 2.5L 13.75 2.5C 14.5 2.5 15 2 15 1.25C 15 0.5 14.5 0 13.75 0Z" transform="translate(35 42.5)" fill="#6066D5"/>
</g>
<g id="Vector_13">
<path d="M 1.25 2.5C 1.94036 2.5 2.5 1.94036 2.5 1.25C 2.5 0.559644 1.94036 0 1.25 0C 0.559644 0 0 0.559644 0 1.25C 0 1.94036 0.559644 2.5 1.25 2.5Z" transform="translate(5 5.00002)" fill="#6066D5"/>
</g>
<g id="Vector_14">
<path d="M 1.25 2.5C 1.94036 2.5 2.5 1.94036 2.5 1.25C 2.5 0.559644 1.94036 0 1.25 0C 0.559644 0 0 0.559644 0 1.25C 0 1.94036 0.559644 2.5 1.25 2.5Z" transform="translate(10 5.00002)" fill="#6066D5"/>
</g>
<g id="Vector_15">
<path d="M 1.25 2.5C 1.94036 2.5 2.5 1.94036 2.5 1.25C 2.5 0.559644 1.94036 0 1.25 0C 0.559644 0 0 0.559644 0 1.25C 0 1.94036 0.559644 2.5 1.25 2.5Z" transform="translate(15 5.00002)" fill="#6066D5"/>
</g>
<g id="Vector_16">
<path d="M 53.75 7.5L 47.5 7.5L 47.5 3.75C 47.5 1.75 45.75 0 43.75 0L 3.75 0C 1.75 0 0 1.75 0 3.75L 0 11.25L 0 41.25C 0 43.25 1.75 45 3.75 45L 30 45L 30 53.75C 30 57.25 32.75 60 36.25 60L 53.75 60C 57.25 60 60 57.25 60 53.75L 60 13.75C 60 10.25 57.25 7.5 53.75 7.5ZM 30 25L 27.5 25L 27.5 17.5L 30 17.5L 30 25ZM 32.5 26.25L 32.5 20L 57.5 20L 57.5 47.5L 32.5 47.5L 32.5 26.25ZM 57.5 13.75L 57.5 17.5L 32.5 17.5L 32.5 16.25L 32.5 13.75C 32.5 11.75 34.25 10 36.25 10L 53.75 10C 55.75 10 57.5 11.75 57.5 13.75ZM 43.75 2.5C 44.5 2.5 45 3 45 3.75L 45 7.5L 36.25 7.5C 34.25 7.5 32.5 8.5 31.25 10L 2.5 10L 2.5 3.75C 2.5 3 3 2.5 3.75 2.5L 43.75 2.5ZM 3.75 42.5C 3 42.5 2.5 42 2.5 41.25L 2.5 12.5L 30.25 12.5C 30 13 30 13.25 30 13.75L 30 15L 26.25 15C 25.5 15 25 15.5 25 16.25L 25 26.25C 25 27 25.5 27.5 26.25 27.5L 30 27.5L 30 30L 26.25 30C 25.5 30 25 30.5 25 31.25C 25 32 25.5 32.5 26.25 32.5L 30 32.5L 30 35L 26.25 35C 25.5 35 25 35.5 25 36.25C 25 37 25.5 37.5 26.25 37.5L 30 37.5L 30 42.5L 3.75 42.5ZM 53.75 57.5L 36.25 57.5C 34.25 57.5 32.5 55.75 32.5 53.75L 32.5 50L 57.5 50L 57.5 53.75C 57.5 55.75 55.75 57.5 53.75 57.5Z" fill="#6066D5"/>
</g>
<g id="Vector_17">
<path d="M 0 1.25C 0 2 0.5 2.5 1.25 2.5L 8.75 2.5C 9.5 2.5 10 2 10 1.25C 10 0.5 9.5 0 8.75 0L 1.25 0C 0.5 0 0 0.5 0 1.25Z" transform="translate(40 12.5)" fill="#6066D5"/>
</g>
</g>
</g>
</g>
</svg>

