<svg width="56" height="56" viewBox="0 0 56 56" version="1.1" xmlns="http://www.w3.org/2000/svg" xmlns:xlink="http://www.w3.org/1999/xlink">
<g id="Canvas" fill="none">
<g id="design-icon">
<g id="Vector" opacity="0.3">
<path d="M 19.25 0L 0 19.25L 8.25 27.5L 27.5 8.25" transform="translate(1.75 26.75)" fill="#7BED9F"/>
</g>
<g id="Vector_2" opacity="0.3">
<path d="M 8.25 27.5L 27.5 8.25L 19.25 0L 0 19.25" transform="translate(26.75 1.75)" fill="#7BED9F"/>
</g>
<g id="Vector_3" opacity="0.3">
<path d="M 5.25 0L 8.75 8.75L 0 5.25L 5.25 0Z" transform="translate(45.5 45.5)" fill="#7BED9F"/>
</g>
<g id="Vector_4" opacity="0.3">
<path d="M 8.875 3.875L 6.375 1.125C 4.875 -0.375 2.625 -0.375 1.125 1.125C -0.375 2.625 -0.375 4.625 1.125 6.125L 3.625 8.875L 8.875 3.875Z" transform="translate(1.625 1.625)" fill="#7BED9F"/>
</g>
<g id="Vector_5">
<path d="M 51.25 44.5C 51.25 44.25 51 44.25 51 44L 36 29L 54.75 10.25C 54.75 10.25 55 9.75 55 9.5C 55 9.25 54.75 8.75 54.75 8.5L 46.5 0.25C 46 5.58794e-08 45 5.58794e-08 44.75 0.25L 26 19L 11 4L 8.5 1.25C 7.5 0.5 6.25 0 5 0C 3.75 0 2.5 0.5 1.5 1.5C -0.25 3.25 -0.5 6.5 1.5 8.25L 4 11L 19 26L 0.25 44.75C 0.25 44.75 0 45.25 0 45.5C 0 45.75 0.25 46.25 0.25 46.5L 8.5 54.75C 8.75 55 9.25 55 9.5 55C 9.75 55 10.25 55 10.5 54.75L 29.25 36L 44.25 51C 44.25 51 44.5 51.25 44.75 51.25L 53.5 54.75C 53.75 54.75 53.75 54.75 54 54.75C 54.25 54.75 54.75 54.5 55 54.5C 55.25 54.25 55.5 53.5 55.25 53.25L 51.25 44.5ZM 45.5 3L 52 9.5L 49.25 12.25L 44.25 7.25C 43.75 6.75 43 6.75 42.5 7.25C 42 7.75 42 8.5 42.5 9L 47.5 14L 43.5 18L 40.25 14.75C 39.75 14.25 39 14.25 38.5 14.75C 38 15.25 38 16 38.5 16.5L 41.75 19.75L 37.75 23.75L 34.5 20.5C 34 20 33.25 20 32.75 20.5C 32.25 21 32.25 21.75 32.75 22.25L 36 25.5L 34.25 27.25L 27.75 20.75L 45.5 3ZM 3.25 3.25C 3.75 2.75 4.25 2.5 4.75 2.5C 5.5 2.5 6 2.75 6.5 3.25L 8.25 5L 4.75 8.25L 3.25 6.5C 2.25 5.5 2.25 4 3.25 3.25ZM 6.75 9.75L 10 6.75L 48.5 45L 45 48.5L 6.75 9.75ZM 26.25 35.25L 23 32C 22.5 31.5 21.75 31.5 21.25 32C 20.75 32.5 20.75 33.25 21.25 33.75L 24.5 37L 20.5 41L 17.25 37.75C 16.75 37.25 16 37.25 15.5 37.75C 15 38.25 15 39 15.5 39.5L 18.75 42.75L 14.75 46.75L 9.75 41.75C 9.25 41.25 8.5 41.25 8 41.75C 7.5 42.25 7.5 43 8 43.5L 13 48.5L 9.75 51.75L 3.25 45.25L 21 27.5L 27.5 34L 26.25 35.25ZM 47.25 49.75L 48.5 48.5L 49.75 47.25L 51.5 51.5L 47.25 49.75Z" transform="translate(0.5 0.5)" fill="#6066D5"/>
</g>
</g>
</g>
</svg>

