<svg width="35" height="35" viewBox="0 0 35 35" version="1.1" xmlns="http://www.w3.org/2000/svg" xmlns:xlink="http://www.w3.org/1999/xlink">
<g id="Canvas" fill="none">
<g id="git-icon">
<g id="Vector">
<path d="M 8.19824 26.8264C 8.19824 26.5572 8.19824 25.4803 8.19824 24.4707L 8.19824 23.461C 3.68862 24.0668 2.54439 20.9034 2.54439 20.9034C 1.93862 19.288 1.06362 18.8841 0.996313 18.8168L 0.929005 18.7495C 0.592467 18.5476 -0.215226 17.9418 0.0540052 17.2014C 0.255928 16.5284 1.06362 16.461 1.46747 16.461C 3.554 16.5957 4.56362 18.4803 4.63093 18.5476C 5.70785 20.3649 7.32324 20.163 8.33285 19.7591C 8.40016 19.288 8.60208 18.8841 8.804 18.4803C 5.43862 17.8745 1.66939 16.1245 1.66939 9.66297C 1.66939 7.91297 2.20785 6.29758 3.28477 5.01874C 3.01554 4.21104 2.74631 2.52835 3.55401 0.441813L 3.68862 0.172582L 4.02516 0.105275C 4.29439 0.037967 5.84247 -0.298572 9.00593 1.72066C 10.2848 1.38412 11.6982 1.24951 13.1117 1.1822C 14.5252 1.1822 15.9386 1.38412 17.2175 1.72066C 20.3809 -0.365879 21.8617 -0.0293407 22.1982 0.105275L 22.5348 0.172582L 22.6694 0.441813C 23.4771 2.52835 23.2079 4.21104 23.0059 5.01874C 24.0829 6.36489 24.6213 7.91297 24.6213 9.66297C 24.6213 16.1245 20.8521 17.8745 17.4867 18.4803C 17.8905 19.2207 18.0925 20.0957 18.0925 21.1053C 18.0925 22.2495 18.0925 25.9514 18.0925 26.7591L 8.19824 26.8264Z" transform="translate(4.59023 6.82739)" fill="#878CF1"/>
</g>
<g id="stroke">
<g id="Vector_2">
<path d="M 8.19824 26.8264C 8.19824 26.5572 8.19824 25.4803 8.19824 24.4707L 8.19824 23.461C 3.68862 24.0668 2.54439 20.9034 2.54439 20.9034C 1.93862 19.288 1.06362 18.8841 0.996313 18.8168L 0.929005 18.7495C 0.592467 18.5476 -0.215226 17.9418 0.0540052 17.2014C 0.255928 16.5284 1.06362 16.461 1.46747 16.461C 3.554 16.5957 4.56362 18.4803 4.63093 18.5476C 5.70785 20.3649 7.32324 20.163 8.33285 19.7591C 8.40016 19.288 8.60208 18.8841 8.804 18.4803C 5.43862 17.8745 1.66939 16.1245 1.66939 9.66297C 1.66939 7.91297 2.20785 6.29758 3.28477 5.01874C 3.01554 4.21104 2.74631 2.52835 3.55401 0.441813L 3.68862 0.172582L 4.02516 0.105275C 4.29439 0.037967 5.84247 -0.298572 9.00593 1.72066C 10.2848 1.38412 11.6982 1.24951 13.1117 1.1822C 14.5252 1.1822 15.9386 1.38412 17.2175 1.72066C 20.3809 -0.365879 21.8617 -0.0293407 22.1982 0.105275L 22.5348 0.172582L 22.6694 0.441813C 23.4771 2.52835 23.2079 4.21104 23.0059 5.01874C 24.0829 6.36489 24.6213 7.91297 24.6213 9.66297C 24.6213 16.1245 20.8521 17.8745 17.4867 18.4803C 17.8905 19.2207 18.0925 20.0957 18.0925 21.1053C 18.0925 22.2495 18.0925 25.9514 18.0925 26.7591L 16.7463 26.7591C 16.7463 25.9514 16.7463 22.2495 16.7463 21.1053C 16.7463 19.4899 16.1405 18.7495 15.8713 18.4803L 14.7271 17.4707L 16.2752 17.2687C 19.7752 16.8649 23.3425 15.6534 23.3425 9.66297C 23.3425 8.11489 22.804 6.70143 21.7944 5.62451L 21.5252 5.28797L 21.6598 4.88412C 21.7944 4.61489 22.2655 3.26874 21.6598 1.31681C 21.1213 1.31681 19.9098 1.58604 17.8905 2.9322L 17.4194 3.26874L 17.1502 3.20143C 15.8713 2.86489 14.5252 2.66297 13.1117 2.66297C 11.6982 2.66297 10.3521 2.86489 9.07323 3.20143L 8.7367 3.26874L 8.46747 3.06681C 6.44824 1.72066 5.2367 1.45143 4.69824 1.45143C 4.09247 3.40335 4.56362 4.74951 4.69824 5.01874L 4.83285 5.42258L 4.56362 5.75912C 3.55401 6.90335 3.01554 8.24951 3.01554 9.79758C 3.01554 15.8553 6.58285 17.0668 10.0829 17.4707L 11.6309 17.6726L 10.4867 18.6822C 10.2175 18.8841 9.81362 19.4226 9.6117 20.4995L 9.54439 20.7687L 9.20785 20.9034C 8.33285 21.3072 5.30401 22.3841 3.4867 19.2207C 3.4867 19.2207 3.15016 18.6149 2.47708 18.1437C 2.88093 18.5476 3.41939 19.288 3.89054 20.3649C 3.95785 20.4995 4.83285 22.788 8.804 21.913L 9.6117 21.711L 9.6117 24.4034C 9.6117 25.413 9.6117 26.4899 9.6117 26.6918L 8.19824 26.8264Z" transform="translate(4.59023 6.82739)" fill="#7AE6A3"/>
</g>
<g id="Vector_3">
<path d="M 17.5 35C 7.875 35 0 27.125 0 17.5C 0 7.875 7.875 0 17.5 0C 27.125 0 35 7.875 35 17.5C 35 27.125 27.125 35 17.5 35ZM 17.5 1.34615C 8.61539 1.34615 1.34615 8.61539 1.34615 17.5C 1.34615 26.3846 8.61539 33.6538 17.5 33.6538C 26.3846 33.6538 33.6538 26.3846 33.6538 17.5C 33.6538 8.61539 26.3846 1.34615 17.5 1.34615Z" fill="#7AE6A3"/>
</g>
</g>
</g>
</g>
</svg>

