<svg width="35" height="35" viewBox="0 0 35 35" version="1.1" xmlns="http://www.w3.org/2000/svg" xmlns:xlink="http://www.w3.org/1999/xlink">
<g id="Canvas" fill="none">
<g id="in-icon">
<g id="fill">
<g id="Vector">
<path d="M 4.2 15.4L 4.2 0L 0 0L 0 15.4L 4.2 15.4Z" transform="translate(6.30001 13.2998)" fill="#878CF1"/>
</g>
<g id="Vector_2">
<path d="M 2.8031 5.04C 4.5531 5.04 5.6731 3.99 5.6731 2.52C 5.6731 1.05 4.5531 1.33514e-07 2.8731 1.33514e-07C 1.1231 1.33514e-07 0.00310237 1.05 0.00310237 2.52C -0.0668976 3.99 1.0531 5.04 2.8031 5.04Z" transform="translate(5.8769 6.16016)" fill="#878CF1"/>
</g>
<g id="Vector_3">
<path d="M 0.14 15.4L 5.11 15.4L 5.11 6.93C 5.11 6.51 5.18 6.02 5.32 5.67C 5.67 4.76 6.65 3.85 8.05 3.85C 9.87 3.85 10.71 5.25 10.71 7.28L 10.71 15.4L 14.91 15.4L 14.91 6.72C 14.91 2.03 12.74 0.0700003 9.45 0.0700003C 6.72 0.0700003 5.88 1.4 5.18 2.8L 5.11 2.8L 5.11 0L 0.14 0C 0.21 1.4 5.34058e-07 15.4 5.34058e-07 15.4L 0.14 15.4Z" transform="translate(13.79 13.2998)" fill="#878CF1"/>
</g>
</g>
<g id="stroke">
<g id="Vector_4">
<path d="M 4.9 0.7L 4.9 16.1L 0.7 16.1L 0.7 0.7L 4.9 0.7ZM 4.9 0L 0.7 0C 0.28 0 0 0.28 0 0.7L 0 16.1C 0 16.52 0.28 16.8 0.7 16.8L 4.9 16.8C 5.32 16.8 5.6 16.52 5.6 16.1L 5.6 0.7C 5.6 0.28 5.32 0 4.9 0Z" transform="translate(5.6 12.5999)" fill="#7AE6A3"/>
</g>
<g id="Vector_5">
<path d="M 3.57 0.7C 5.32 0.7 6.37 1.75 6.37 3.22C 6.37 4.69 5.25 5.74 3.5 5.74C 1.82 5.74 0.7 4.69 0.7 3.22C 0.7 1.75 1.82 0.7 3.57 0.7ZM 3.57 1.33514e-07C 1.47 1.33514e-07 1.33514e-07 1.33 1.33514e-07 3.22C 1.33514e-07 5.11 1.4 6.44 3.5 6.44C 5.6 6.44 7.07 5.11 7.07 3.22C 7.07 1.33 5.67 1.33514e-07 3.57 1.33514e-07Z" transform="translate(5.11 5.46021)" fill="#7AE6A3"/>
</g>
<g id="Vector_6">
<path d="M 5.74 0.7L 5.74 3.5L 5.81 3.5C 6.44 2.1 7.35 0.77 10.08 0.77C 13.37 0.77 15.54 2.73 15.54 7.42L 15.54 16.1L 11.34 16.1L 11.34 7.98C 11.34 5.95 10.5 4.55 8.68 4.55C 7.28 4.55 6.37 5.46 5.95 6.37C 5.81 6.72 5.74 7.14 5.74 7.63L 5.74 16.1L 0.77 16.1L 0.630001 16.1C 0.630001 16.1 0.84 2.1 0.77 0.7L 5.74 0.7ZM 5.74 0L 0.77 0C 0.56 0 0.420001 0.0699995 0.280001 0.209999C 0.140001 0.349999 0.0699997 0.56 0.0699997 0.7C 0.14 2.1 -5.34058e-07 15.96 -5.34058e-07 16.1C -5.34058e-07 16.31 0.0700003 16.45 0.21 16.59C 0.35 16.73 0.49 16.8 0.7 16.8L 0.84 16.8L 5.74 16.8C 6.16 16.8 6.44 16.52 6.44 16.1L 6.44 7.63C 6.44 7.28 6.51 6.93 6.58 6.65C 6.86 6.02 7.56 5.25 8.61 5.25C 9.94 5.25 10.57 6.16 10.57 7.98L 10.57 16.1C 10.57 16.52 10.85 16.8 11.27 16.8L 15.47 16.8C 15.89 16.8 16.17 16.52 16.17 16.1L 16.17 7.42C 16.17 1.05 12.32 0.0700003 10.01 0.0700003C 8.26 0.0700003 7.14 0.56 6.37 1.33L 6.37 0.7C 6.44 0.28 6.16 0 5.74 0Z" transform="translate(13.16 12.5999)" fill="#7AE6A3"/>
</g>
<g id="Vector_7">
<path d="M 30.1 35L 4.9 35C 2.17 35 0 32.83 0 30.1L 0 4.9C 0 2.17 2.17 0 4.9 0L 30.1 0C 32.83 0 35 2.17 35 4.9L 35 30.1C 35 32.83 32.83 35 30.1 35ZM 4.9 1.4C 2.94 1.4 1.4 2.94 1.4 4.9L 1.4 30.1C 1.4 32.06 2.94 33.6 4.9 33.6L 30.1 33.6C 32.06 33.6 33.6 32.06 33.6 30.1L 33.6 4.9C 33.6 2.94 32.06 1.4 30.1 1.4L 4.9 1.4Z" fill="#7AE6A3"/>
</g>
</g>
</g>
</g>
</svg>

