<svg width="50" height="50" viewBox="0 0 50 50" version="1.1" xmlns="http://www.w3.org/2000/svg" xmlns:xlink="http://www.w3.org/1999/xlink">
<g id="Canvas" fill="none">
<g id="logo" opacity="0.7">
<g id="Vector">
<path d="M 7.30819 30.1148C 15.4808 38.2327 27.6079 39.542 37.3623 34.3046L 36.3078 30.1148C 28.1352 35.0902 17.3262 34.3046 10.2082 27.2342C 3.09008 20.1638 2.03555 9.16536 7.30819 1.04747L 3.35371 1.99789e-06C -2.18257 9.42723 -0.86441 21.9969 7.30819 30.1148Z" transform="translate(0 12.5696)" fill="#9CF8B9"/>
</g>
<g id="Vector_2">
<path d="M 0 3.14241L 1.05453 7.07042C 9.22713 1.83307 20.2997 2.88054 27.4178 9.95097C 34.5358 17.0214 35.5904 27.758 30.3177 35.8758L 34.2722 36.9233C 39.5449 27.4961 38.2267 15.1883 30.0541 7.07042C 22.1451 -0.785602 9.7544 -2.09494 0 3.14241Z" transform="translate(12.5809 0)" fill="#9CF8B9"/>
</g>
<g id="Vector_3">
<path d="M 3.16359 3.14241C -1.05453 7.33229 -1.05453 13.879 3.16359 18.0689C 7.38171 22.2587 13.9725 22.2587 18.1906 18.0689C 22.4088 13.879 22.4088 7.33229 18.1906 3.14241C 13.9725 -1.04747 7.38171 -1.04747 3.16359 3.14241ZM 15.2907 15.1883C 12.6544 17.807 8.43624 17.807 6.06354 15.1883C 3.42722 12.5696 3.42722 8.37976 6.06354 6.02295C 8.69987 3.40428 12.918 3.40428 15.2907 6.02295C 17.927 8.37976 17.927 12.5696 15.2907 15.1883Z" transform="translate(14.4262 14.4028)" fill="#9CF8B9"/>
</g>
</g>
</g>
</svg>

