<svg width="85" height="87" viewBox="0 0 85 87" version="1.1" xmlns="http://www.w3.org/2000/svg" xmlns:xlink="http://www.w3.org/1999/xlink">
<g id="Canvas" fill="none">
<g id="personal-logo">
<g id="Vector">
<path d="M 76.0802 0L 0 0L 0 76.4545L 76.0802 76.4545L 76.0802 0Z" transform="translate(8.91974 10.5454)" fill="#7BED9F"/>
</g>
<g id="Vector_2">
<path d="M 4.84835 20.2121C 10.2702 25.6606 18.3154 26.5394 24.7866 23.0242L 24.087 20.2121C 18.6652 23.5515 11.4944 23.0242 6.77222 18.2788C 2.05 13.5333 1.35041 6.15152 4.84835 0.703031L 2.22489 1.34092e-06C -1.44795 6.32727 -0.57346 14.7636 4.84835 20.2121Z" transform="translate(23.1352 31.9879)" fill="white"/>
</g>
<g id="Vector_3">
<path d="M 0 2.10909L 0.699588 4.74545C 6.1214 1.2303 13.4671 1.93333 18.1893 6.67879C 22.9115 11.4242 23.6111 18.6303 20.1132 24.0788L 22.7366 24.7818C 26.2346 18.4545 25.3601 10.1939 19.9383 4.74545C 14.6914 -0.527272 6.47119 -1.40606 0 2.10909Z" transform="translate(31.4815 23.5515)" fill="white"/>
</g>
<g id="Vector_4">
<path d="M 2.09876 2.10909C -0.699589 4.92121 -0.699589 9.31515 2.09876 12.1273C 4.89712 14.9394 9.26955 14.9394 12.0679 12.1273C 14.8663 9.31515 14.8663 4.92121 12.0679 2.10909C 9.26955 -0.70303 4.89712 -0.70303 2.09876 2.10909ZM 10.144 10.1939C 8.39506 11.9515 5.59671 11.9515 4.02263 10.1939C 2.27366 8.43637 2.27366 5.62424 4.02263 4.04243C 5.77161 2.28485 8.56996 2.28485 10.144 4.04243C 11.893 5.62424 11.893 8.43637 10.144 10.1939Z" transform="translate(32.7057 33.2181)" fill="white"/>
</g>
<g id="Vector_5">
<path d="M 79.5782 79.9697L 0 79.9697L 0 0L 79.5782 0L 79.5782 79.9697ZM 3.49794 76.4545L 76.0803 76.4545L 76.0803 3.51515L 3.49794 3.51515L 3.49794 76.4545Z" fill="white"/>
</g>
</g>
</g>
</svg>

