<svg width="60" height="60" viewBox="0 0 60 60" version="1.1" xmlns="http://www.w3.org/2000/svg" xmlns:xlink="http://www.w3.org/1999/xlink">
<g id="Canvas" fill="none">
<g id="strategy-icon">
<g id="Vector" opacity="0.3">
<path d="M 0.75 0.75L 0.75 51.75L 20.25 56L 20.25 53.5L 22.25 48.75L 25 46.75L 24.75 44.75L 23.75 40.5L 27 37.25L 31.25 37.75L 33.25 41.5L 32 44.75L 31.25 46.5L 35 49.25L 36.75 52L 38.5 52L 41.5 45.5L 39.5 39L 36 34.25L 32 32.25L 25.5 32L 23.25 31.25L 22.75 5.25C 22.75 5.25 12.25 1.25 12 1.25C 11.75 1.25 -4.76837e-07 2.98023e-08 -4.76837e-07 2.98023e-08L 0.75 0.75Z" transform="translate(18 1.99997)" fill="#7BED9F"/>
</g>
<g id="Vector_2" opacity="0.3">
<path d="M 3.75 7.5C 5.82107 7.5 7.5 5.82107 7.5 3.75C 7.5 1.67893 5.82107 0 3.75 0C 1.67893 0 0 1.67893 0 3.75C 0 5.82107 1.67893 7.5 3.75 7.5Z" transform="translate(6.25 13.75)" fill="#72659B"/>
</g>
<g id="Group">
<g id="Vector_3">
<path d="M 59.5 0.25C 59.25 0 58.75 0 58.5 0L 41.25 5L 19 0L 18.75 0L 18.5 0L 1 5C 0.25 5.25 0 5.75 0 6.25L 0 58.75C 0 59.25 0.25 59.5 0.5 59.75C 0.75 60 1 60 1.25 60L 1.5 60L 18.75 55L 41 60L 41.25 60L 46.25 60C 53.75 60 60 53.75 60 46.25L 60 1.25C 60 0.75 59.75 0.5 59.5 0.25ZM 2.5 7.25L 17.5 3L 17.5 35C 17.25 34.75 17.25 34.75 17 34.75C 16.25 34.5 15.75 34.25 15.25 34C 14.75 33.5 14 33.75 13.5 34.25C 13 34.75 13.25 35.5 13.75 36C 14.5 36.5 15.5 37 16.5 37.25L 16.75 37.25C 17 37.25 17.25 37 17.5 37L 17.5 53L 2.5 57.25L 2.5 7.25L 2.5 7.25ZM 20 2.75L 40 7.25L 40 17.75C 39.75 17.75 39.5 17.5 39.25 17.75C 38.25 18 37.5 18.5 36.75 19C 36.25 19.25 36 20.25 36.5 20.75C 36.75 21 37.25 21.25 37.5 21.25C 37.75 21.25 38 21.25 38.25 21C 39 20.5 39.5 20.25 40.25 20.25L 40.25 31.5L 40.25 34L 40.25 34.25C 35.75 36.5 32.75 41.25 32.75 46.5C 32.75 50.5 34.5 54.25 37.5 56.75L 20 52.75L 20 2.75ZM 43 43.5C 43 41.75 44.5 40.25 46.25 40.25C 48 40.25 49.5 41.75 49.5 43.5C 49.5 45.25 48 46.75 46.25 46.75C 44.5 46.75 43 45.5 43 43.5ZM 46.25 57.5C 43.75 57.5 41.5 56.75 39.75 55.25C 40.25 52 43 49.5 46.25 49.5C 49.5 49.5 52.5 52 52.75 55.25C 51 56.75 48.75 57.5 46.25 57.5ZM 55 53.25C 54.25 50.75 52.5 49 50.25 47.75C 51.5 46.75 52.25 45.25 52.25 43.5C 52.25 40.25 49.5 37.75 46.5 37.75C 43.5 37.75 40.75 40.5 40.75 43.5C 40.75 45.25 41.5 46.75 42.75 47.75C 40.5 48.75 38.75 50.75 38 53.25C 36.5 51.25 35.5 48.75 35.5 46.25C 35.5 40 40.5 35 46.75 35C 53 35 58 40 58 46.25C 57.5 49 56.5 51.5 55 53.25ZM 52.25 34C 52.75 34 53 33.5 53.25 33.25C 53.5 32.25 53.75 31.5 53.75 30.5C 53.75 29.75 53.25 29.25 52.5 29.25C 51.75 29.25 51.25 29.75 51.25 30.5C 51.25 31.25 51 32 50.75 32.75C 50.75 33 50.75 33.5 51 33.75C 49.5 33.25 48 33 46.25 33C 45 33 43.75 33.25 42.5 33.5L 42.5 31.75L 42.5 7.25L 57.5 3L 57.5 38.5C 56.25 36.5 54.25 35 52.25 34Z" fill="#6066D5"/>
</g>
<g id="Vector_4">
<path d="M 2.84375 0.164213C 2.09375 0.664213 1.59375 0.914214 0.843749 1.16421C 0.093749 1.41421 -0.156249 2.16421 0.093751 2.66421C 0.343751 3.16421 0.843751 3.41421 1.34375 3.41421C 1.59375 3.41421 1.59375 3.41421 1.84375 3.41421C 2.59375 3.16421 3.59375 2.66421 4.34375 2.16421C 4.84375 1.66421 5.09375 0.914214 4.59375 0.414214C 4.34375 -0.0857864 3.59375 -0.0857874 2.84375 0.164213Z" transform="translate(20.1562 33.3358)" fill="#6066D5"/>
</g>
<g id="Vector_5">
<path d="M 2.5 0.999999C 2.25 0.249999 1.75 0 1 0C 0.25 0.25 1.19209e-07 0.750001 1.19209e-07 1.5C 0.25 2.5 0.5 3.25 0.75 4C 1 4.5 1.5 4.75 2 4.75C 2.25 4.75 2.25 4.75 2.5 4.75C 3.25 4.5 3.5 3.75 3.25 3C 3 2.5 2.75 1.75 2.5 0.999999Z" transform="translate(9.25 27.5)" fill="#6066D5"/>
</g>
<g id="Vector_6">
<path d="M 5 12.5C 5.75 12.5 6.25 12 6.25 11.25C 6.25 11 6.25 10.5 6.25 10.25C 6.25 10 6.25 10 6.25 9.75C 8.5 9.25 10 7.25 10 5C 10 2.25 7.75 0 5 0C 2.25 0 0 2.25 0 5C 0 7.25 1.5 9.25 3.75 9.75C 3.75 10 3.75 10 3.75 10.25C 3.75 10.5 3.75 10.75 3.75 11.25C 3.75 12 4.25 12.5 5 12.5ZM 2.5 5C 2.5 3.5 3.5 2.5 5 2.5C 6.5 2.5 7.5 3.5 7.5 5C 7.5 6.5 6.5 7.5 5 7.5C 3.5 7.5 2.5 6.5 2.5 5Z" transform="translate(5 12.5)" fill="#6066D5"/>
</g>
<g id="Vector_7">
<path d="M 1.875 0.414213C 1.375 1.16421 0.875001 1.66421 0.375001 2.41421C -0.124999 2.91421 -0.124999 3.66421 0.375001 4.16421C 0.875001 4.41421 1.125 4.41421 1.375 4.41421C 1.625 4.41421 2.125 4.16421 2.375 3.91421C 2.875 3.16421 3.375 2.66421 4.125 1.91421C 4.625 1.41421 4.375 0.664214 3.875 0.164214C 3.125 -0.085786 2.375 -0.0857874 1.875 0.414213Z" transform="translate(26.125 28.0858)" fill="#6066D5"/>
</g>
<g id="Vector_8">
<path d="M 4.06503 1.06503C 3.31503 0.565032 2.31503 0.315032 1.56503 0.0650322C 0.815032 -0.184968 0.315031 0.315032 0.0650314 1.06503C -0.184969 1.81503 0.31503 2.31503 1.06503 2.56503C 1.81503 2.81503 2.56503 3.06503 3.06503 3.31503C 3.31503 3.31503 3.31503 3.56503 3.56503 3.56503C 4.06503 3.56503 4.56503 3.31503 4.56503 2.81503C 4.81503 2.31503 4.56503 1.56503 4.06503 1.06503Z" transform="translate(43.435 17.6849)" fill="#6066D5"/>
</g>
<g id="Vector_9">
<path d="M 2.27254 0.522542C 1.77254 0.0225425 1.02254 -0.227458 0.522542 0.272542C 0.0225425 0.772542 -0.227458 1.52254 0.272542 2.02254C 0.772542 2.52254 1.02254 3.27254 1.27254 4.02254C 1.52254 4.52254 2.02254 4.77254 2.52254 4.77254C 2.77254 4.77254 2.77254 4.77254 3.02254 4.77254C 3.77254 4.52254 4.02254 3.77254 3.77254 3.27254C 3.27254 2.02254 2.77254 1.27254 2.27254 0.522542Z" transform="translate(49.4775 21.9775)" fill="#6066D5"/>
</g>
<g id="Vector_10">
<path d="M 3.52254 2.09847C 4.02254 1.59847 4.02254 0.848469 3.52254 0.348469C 3.02254 -0.151531 2.27254 -0.15153 1.77254 0.59847C 1.27254 1.34847 0.772542 1.84847 0.272542 2.59847C -0.227458 3.09847 0.0225434 3.84847 0.522543 4.34847C 0.772543 4.59847 1.02254 4.59847 1.27254 4.59847C 1.52254 4.59847 2.02254 4.34847 2.27254 4.09847C 2.52254 3.34847 3.02254 2.59847 3.52254 2.09847Z" transform="translate(30.9775 22.1516)" fill="#6066D5"/>
</g>
</g>
</g>
</g>
</svg>

