<svg width="60" height="58" viewBox="0 0 60 58" version="1.1" xmlns="http://www.w3.org/2000/svg" xmlns:xlink="http://www.w3.org/1999/xlink">
<g id="Canvas" fill="none">
<g id="support-icon">
<g id="Vector" opacity="0.3">
<path d="M 8 16C 12.4183 16 16 12.4183 16 8C 16 3.58172 12.4183 0 8 0C 3.58172 0 0 3.58172 0 8C 0 12.4183 3.58172 16 8 16Z" transform="translate(30.25 1.5)" fill="#7BED9F"/>
</g>
<g id="Vector_2" opacity="0.3">
<path d="M 15 0C 11.75 0 8.5 1 6 2.5L 4.25 6.5L -9.53674e-07 14.25L 12.75 21.5L 32.75 21.5C 32.75 21.5 32.75 19.25 32.75 18C 32.75 8 24.75 0 15 0Z" transform="translate(23.5 17.75)" fill="#7BED9F"/>
</g>
<g id="Vector_3" opacity="0.3">
<path d="M 0 0L 7.5 0L 5 7.5L 0 7.5" transform="translate(38.75 44)" fill="#7BED9F"/>
</g>
<g id="Group">
<g id="Vector_4">
<path d="M 58.75 37.5L 57.5 37.5L 57.5 35.25C 57.5 26.5 51.5 19.25 43.5 17C 45.75 15.25 47.5 12.5 47.5 9.5C 47.5 4.25 43.25 0 38 0C 32.75 0 28.5 4.25 28.5 9.5C 28.5 12.75 30.25 15.5 32.5 17.25C 31 17.75 29.75 18.25 28.5 19C 27 15.25 23.5 12.5 19.25 12.5C 13.75 12.5 9.25 17 9.25 22.5C 9.25 26 11 29 13.75 31C 10 32.25 6.5 34.5 4 37.5L 1.25 37.5C 0.5 37.5 0 38 0 38.75C 0 39.5 0.5 40 1.25 40L 2.75 40C 1 43 0 46.25 0 50L 0 56.25C 0 57 0.5 57.5 1.25 57.5L 38.75 57.5C 39.5 57.5 40 57 40 56.25L 40 52.5L 43.75 52.5C 44.25 52.5 44.75 52.25 45 51.75L 47.5 44.25C 47.75 43.75 47.5 43.5 47.25 43C 47 42.75 46.75 42.5 46.25 42.5L 38.75 42.5L 38.5 42.5C 38.25 41.5 37.75 40.75 37.25 40L 58.75 40C 59.5 40 60 39.5 60 38.75C 60 38 59.5 37.5 58.75 37.5ZM 55 35.25L 55 37.5L 40 37.5L 40 34.25L 42.25 32C 42.5 31.75 42.75 31.25 42.5 31L 41.25 21.25L 42 19C 49.5 20.75 55 27.25 55 35.25ZM 40 30.75L 38.75 32L 37.5 30.75L 38.5 22.5L 38.75 22.5L 40 30.75ZM 38.5 18.75C 38.75 18.75 39.25 18.75 39.5 18.75L 39 20L 38.25 20L 38 18.75C 38.25 18.75 38.25 18.75 38.5 18.75ZM 31.25 9.25C 31.25 5.5 34.25 2.25 38.25 2.25C 42.25 2.25 45 5.5 45 9.25C 45 13 42 16.25 38.25 16.25C 34.5 16.25 31.25 13.25 31.25 9.25ZM 12 22.5C 12 18.25 15.25 15 19.5 15C 23.75 15 27 18.25 27 22.5C 27 26.75 23.75 30 19.5 30C 15.25 30 12 26.75 12 22.5ZM 44.5 45L 42.75 50L 40 50C 40 48.25 39.75 46.5 39.25 45L 44.5 45ZM 37.5 55L 2.5 55L 2.5 50C 2.5 40.25 10.25 32.5 20 32.5C 29.75 32.5 37.5 40.25 37.5 50L 37.5 55ZM 25.25 30.75C 27.75 29 29.5 26 29.5 22.5C 29.5 22 29.5 21.75 29.25 21.25C 29.5 21.25 29.75 21.25 30 21C 31.75 20 33.5 19.25 35.5 19L 36.25 21.25L 35 31C 35 31.5 35 31.75 35.25 32L 37.5 34.25L 37.5 37.5L 35.5 37.5C 33 34.25 29.25 31.75 25.25 30.75Z" transform="translate(0 0.25)" fill="#6066D5"/>
</g>
<g id="Vector_5">
<path d="M 4.0665 0.0664966C 3.3165 -0.183503 2.8165 0.316495 2.5665 0.816495L 0.0664975 8.31649C -0.183502 9.06649 0.316496 9.5665 0.816496 9.8165C 1.0665 9.8165 1.0665 9.8165 1.3165 9.8165C 1.8165 9.8165 2.3165 9.5665 2.5665 9.0665L 5.0665 1.5665C 5.0665 1.0665 4.5665 0.316497 4.0665 0.0664966Z" transform="translate(47.6835 42.6835)" fill="#6066D5"/>
</g>
</g>
</g>
</g>
</svg>

