<svg width="35" height="35" viewBox="0 0 35 35" version="1.1" xmlns="http://www.w3.org/2000/svg" xmlns:xlink="http://www.w3.org/1999/xlink">
<g id="Canvas" fill="none">
<g id="tw-icon">
<g id="Vector">
<path d="M 6.79808 17.5C 14.9423 17.5 19.3846 10.7692 19.3846 4.91346C 19.3846 4.71154 19.3846 4.50962 19.3846 4.375C 20.2596 3.76923 21 2.96154 21.6058 2.08654C 20.7981 2.42308 19.9904 2.69231 19.0481 2.75962C 19.9904 2.22115 20.6635 1.34615 21 0.336538C 20.125 0.875 19.1827 1.21154 18.1731 1.41346C 17.3654 0.538462 16.1538 0 14.9423 0C 12.5192 0 10.5 1.95192 10.5 4.44231C 10.5 4.77885 10.5673 5.11539 10.6346 5.45192C 6.93269 5.25 3.70192 3.5 1.54808 0.807692C 1.14423 1.48077 0.942307 2.22115 0.942307 3.02885C 0.942307 4.57692 1.75 5.92308 2.89423 6.73077C 2.15385 6.73077 1.48077 6.52885 0.875 6.19231L 0.875 6.25961C 0.875 8.41346 2.42308 10.1635 4.44231 10.5673C 4.03846 10.7019 3.70192 10.7019 3.29808 10.7019C 3.02885 10.7019 2.75962 10.7019 2.49038 10.6346C 3.02885 12.3846 4.71154 13.6635 6.59615 13.7308C 5.11538 14.9423 3.16346 15.6154 1.07692 15.6154C 0.740385 15.6154 0.336538 15.6154 0 15.5481C 1.95192 16.7596 4.30769 17.5 6.79808 17.5Z" transform="translate(6.73076 8.75)" fill="#9095F9" fill-opacity="0.7"/>
</g>
<g id="stroke">
<g id="Vector_2">
<path d="M 7.09371 18.2404C 4.60333 18.2404 2.24756 17.5673 0.161021 16.2212C 0.0264053 16.1538 -0.0409023 15.9519 0.0264054 15.8173C 0.0937131 15.6827 0.228328 15.5481 0.362944 15.6154C 0.699482 15.6827 1.03602 15.6827 1.37256 15.6827C 2.98794 15.6827 4.60333 15.2115 5.94948 14.3365C 4.3341 14 2.92064 12.7885 2.38217 11.1058C 2.31487 10.9712 2.38217 10.8365 2.44948 10.7692C 2.51679 10.7019 2.6514 10.6346 2.78602 10.6346C 2.92064 10.6346 3.12256 10.7019 3.25717 10.7019C 1.7764 9.89423 0.834098 8.27885 0.834098 6.59615L 0.834098 6.52885C 0.834098 6.39423 0.901405 6.32692 1.03602 6.25962C 1.17064 6.19231 1.23794 6.19231 1.37256 6.25962C 1.57448 6.39423 1.84371 6.46154 2.11294 6.59615C 1.37256 5.72115 0.901405 4.64423 0.901405 3.43269C 0.901405 2.625 1.10333 1.75 1.57448 1.00962C 1.64179 0.942307 1.7091 0.875 1.84371 0.875C 1.97833 0.875 2.04564 0.942307 2.11294 1.00962C 4.19948 3.56731 7.29564 5.18269 10.5264 5.45192C 10.5264 5.25 10.4591 5.04808 10.4591 4.77885C 10.4591 2.15385 12.6129 -2.56758e-07 15.2379 -2.56758e-07C 16.5168 -2.56758e-07 17.661 0.471154 18.6033 1.34615C 19.4783 1.14423 20.3533 0.807692 21.0937 0.336538C 21.2283 0.269231 21.3629 0.269231 21.4976 0.336538C 21.6322 0.403846 21.6322 0.538461 21.6322 0.673077C 21.4303 1.34615 21.0937 1.95192 20.6226 2.42308C 21.0264 2.28846 21.4303 2.15385 21.7668 2.01923C 21.9014 1.95192 22.036 2.01923 22.1706 2.08654C 22.2379 2.22115 22.3053 2.35577 22.1706 2.49038C 21.5649 3.36538 20.8918 4.10577 20.0168 4.77885C 20.0168 4.91346 20.0168 5.04808 20.0168 5.18269C 19.9495 11.7115 15.1706 18.2404 7.09371 18.2404ZM 1.7091 16.2885C 3.39179 17.0962 5.2091 17.5673 7.09371 17.5673C 14.7668 17.5673 19.3437 11.375 19.3437 5.31731C 19.3437 5.11538 19.3437 4.91346 19.3437 4.77885C 19.3437 4.64423 19.411 4.57692 19.4783 4.50962C 20.0168 4.10577 20.4879 3.70192 20.8918 3.23077C 20.4206 3.36539 19.8822 3.5 19.3437 3.56731C 19.2091 3.56731 19.0072 3.5 19.0072 3.36538C 18.9399 3.23077 19.0072 3.02885 19.1418 2.96154C 19.7476 2.625 20.2187 2.15385 20.5552 1.54808C 19.8822 1.81731 19.2091 2.08654 18.536 2.22115C 18.4014 2.22115 18.3341 2.22115 18.1995 2.15385C 17.4591 1.34615 16.3149 0.875 15.2379 0.875C 13.0168 0.875 11.1322 2.69231 11.1322 4.98077C 11.1322 5.31731 11.1995 5.58654 11.2668 5.92308C 11.2668 6.05769 11.2668 6.125 11.1995 6.19231C 11.1322 6.25962 11.0649 6.32692 10.9303 6.32692C 7.49756 6.125 4.19948 4.57692 1.91102 1.95192C 1.7091 2.49038 1.57448 3.02885 1.57448 3.56731C 1.57448 4.91346 2.24756 6.19231 3.39179 6.93269C 3.52641 7 3.59371 7.20192 3.52641 7.33654C 3.4591 7.47115 3.32448 7.60577 3.18987 7.53846C 2.65141 7.53846 2.11294 7.40385 1.57448 7.20192C 1.7764 8.95192 3.12256 10.3654 4.80525 10.7019C 4.93987 10.7019 5.07448 10.8365 5.07448 11.0385C 5.07448 11.1731 5.00717 11.3077 4.80525 11.375C 4.3341 11.5096 3.79564 11.5769 3.25717 11.5096C 3.93025 12.9231 5.2764 13.7981 6.89179 13.8654C 7.0264 13.8654 7.16102 13.9327 7.22833 14.0673C 7.29564 14.2019 7.22833 14.3365 7.09371 14.4712C 5.47833 15.5481 3.66102 16.2212 1.7091 16.2885Z" transform="translate(6.43513 8.34619)" fill="#7BED9F"/>
</g>
<g id="Vector_3">
<path d="M 17.5 35C 7.875 35 0 27.125 0 17.5C 0 7.875 7.875 0 17.5 0C 27.125 0 35 7.875 35 17.5C 35 27.125 27.125 35 17.5 35ZM 17.5 1.34615C 8.61539 1.34615 1.34615 8.61539 1.34615 17.5C 1.34615 26.3846 8.61539 33.6538 17.5 33.6538C 26.3846 33.6538 33.6538 26.3846 33.6538 17.5C 33.6538 8.61539 26.3846 1.34615 17.5 1.34615Z" fill="#7BED9F"/>
</g>
</g>
</g>
</g>
</svg>

